<?xml version="1.0" encoding="utf-8"?>
<!-- Generator: Adobe Illustrator 26.0.0, SVG Export Plug-In . SVG Version: 6.00 Build 0)  -->
<svg version="1.1" id="圖層_1" xmlns="http://www.w3.org/2000/svg" xmlns:xlink="http://www.w3.org/1999/xlink" x="0px" y="0px"
	 width="183px" height="45px" viewBox="0 0 183 45" style="enable-background:new 0 0 183 45;" xml:space="preserve">
<style type="text/css">
	.st0{fill:#00367C;}
	.st1{fill:#51B848;}
	.st2{fill:url(#SVGID_1_);}
	.st3{fill:url(#SVGID_00000066477847363571181530000001174534727447426967_);}
	.st4{fill:#FFFFFF;}
	.st5{fill:url(#SVGID_00000040533444350152549070000004717505762095457957_);}
</style>
<g>
	<g>
		<g>
			<polygon class="st0" points="0,22.5 22.6,0 0,0 			"/>
			<polygon class="st0" points="22.6,45 0,22.5 0,45 			"/>
			<polygon class="st0" points="22.6,45 45.1,22.5 45.1,45 			"/>
			<polygon class="st1" points="45.1,22.5 22.6,0 45.1,0 			"/>
			
				<linearGradient id="SVGID_1_" gradientUnits="userSpaceOnUse" x1="11.3318" y1="1005.3018" x2="22.8259" y2="1016.7959" gradientTransform="matrix(1 0 0 1 0 -994)">
				<stop  offset="0" style="stop-color:#E83E0B"/>
				<stop  offset="0.2" style="stop-color:#EA5006"/>
				<stop  offset="0.52" style="stop-color:#F08300"/>
				<stop  offset="1" style="stop-color:#FFDE00"/>
			</linearGradient>
			<polygon class="st2" points="22.6,0 0,22.5 22.6,22.5 			"/>
			
				<linearGradient id="SVGID_00000105395135345688957250000006305045862704189343_" gradientUnits="userSpaceOnUse" x1="-5014.0474" y1="5258.1104" x2="-5002.5527" y2="5269.6045" gradientTransform="matrix(0 -1 1 0 -5246.7568 -4980.3311)">
				<stop  offset="0" style="stop-color:#E83E0B"/>
				<stop  offset="0.2" style="stop-color:#EA5006"/>
				<stop  offset="0.52" style="stop-color:#F08300"/>
				<stop  offset="1" style="stop-color:#FFDE00"/>
			</linearGradient>
			<polygon style="fill:url(#SVGID_00000105395135345688957250000006305045862704189343_);" points="0,22.5 22.6,45 22.6,22.5 			
				"/>
			<polygon class="st4" points="45.1,22.5 22.6,45 22.6,22.5 			"/>
			
				<linearGradient id="SVGID_00000083802559791342398680000011110725040164436110_" gradientUnits="userSpaceOnUse" x1="33.9226" y1="1005.1974" x2="22.588" y2="1016.532" gradientTransform="matrix(1 0 0 1 0 -994)">
				<stop  offset="0" style="stop-color:#003483"/>
				<stop  offset="0.2" style="stop-color:#003686"/>
				<stop  offset="0.52" style="stop-color:#0057A4"/>
				<stop  offset="1" style="stop-color:#009CE5"/>
			</linearGradient>
			<polygon style="fill:url(#SVGID_00000083802559791342398680000011110725040164436110_);" points="45.1,22.5 22.6,0 22.6,22.5 			
				"/>
		</g>
	</g>
	<g>
		<g id="壽_00000127030590226124181020000011431437097272696469_">
			<polygon class="st0" points="170.1,6.9 162,6.9 162,8.6 180.2,8.6 180.2,6.9 172.4,6.9 172.4,6 182.1,6 182.1,4.3 172.4,4.3 
				172.4,3 170.1,3 170.1,4.3 160.2,4.3 160.2,6 170.1,6 			"/>
			<polygon class="st0" points="160.4,14.5 160.4,16 180.2,16 180.2,14.5 171.2,14.5 171.2,13.4 178,13.4 178,11.9 161.9,11.9 
				161.9,13.4 168.9,13.4 168.9,14.5 			"/>
			<path class="st0" d="M183.2,18.6v-1.7h-24.1v1.7h19.1v1.2h-7.4v1.6h1.8l-0.8,0.6l0.1,0.1c0.7,0.9,1.3,1.9,1.8,2.8l1.7-1
				c-0.5-0.9-1.2-1.8-1.9-2.4h4.7v2.6c0,0.5-0.2,0.7-0.6,0.7c-0.4,0-1.5,0-2.5,0l0.4,1.9c1.2,0.1,2.9,0.1,3.6,0
				c1.2-0.2,1.5-0.9,1.5-2.2v-2.9h1.7v-1.8h-1.7v-1.2C180.6,18.6,183.2,18.6,183.2,18.6z"/>
			<path class="st0" d="M168.3,19.8h-7.6v4.5c0,0.8,0.6,1.4,1.4,1.4h7.6v-4.5C169.7,20.5,169.1,19.8,168.3,19.8z M167.5,24h-4.6
				v-2.5h4.6V24z"/>
			<path class="st0" d="M179,12.1l1.5,1.2c1-1,2.2-2.4,2.4-2.6c0.4-0.5,0.2-1.3-0.9-1.3h-22.4v1.7h20.5
				C179.8,11.4,179.4,11.7,179,12.1z"/>
		</g>
		<path id="人_00000031179204918951655550000015506091951090588545_" class="st0" d="M151.3,26.9V24c-10.3-4.9-10.8-14-10.9-15.2
			c0-0.1,0-0.1,0-0.1V3h-2.8v5.7c0,0.4-0.1,10.2-10.9,15.4v2.7l0,0c7.3-3,10.6-7.9,12.2-11.9C140.6,19,144,23.8,151.3,26.9z"/>
		<g>
			<path class="st0" d="M73.7,10.7h-9.9v1.9h9.9V10.7z M74.1,22.3l-2.4,0.4l0.9-2.7h-1.9l-1,3l-1.8,0.3c-0.1-1-0.3-2.1-0.8-3.3H65
				c0.5,1.1,0.8,2.5,0.9,3.6c-1.1,0.2-2,0.3-2.8,0.4v2.3c2.7-0.5,7.9-1.8,11-2.4V22.3L74.1,22.3z M65.3,9.6h8.5V3.9h-2.1v3.8h-1.8
				V3.1h-2.1v4.6H66V3.9h-2.1v4.3C63.8,9,64.5,9.6,65.3,9.6z M65.3,19.3h8.5V15c0-0.8-0.6-1.4-1.4-1.4h-8.5v4.3
				C63.8,18.7,64.5,19.3,65.3,19.3z M66,15.3h5.5v2.3H66V15.3z M84.6,24.6c-0.5,0-0.7-0.3-0.7-0.8V5.3c0-0.8-0.6-1.4-1.4-1.4h-5.9
				v11.5c0,4.1-0.3,8.2-3,11.1H76c2.7-3.1,2.8-6.6,2.8-11.1V5.8h2.7v18.4c0,1.4,0.4,2.1,1.6,2.4c0.7,0.1,2.5,0.1,3.7,0l0.4-2
				C86.2,24.6,85.1,24.6,84.6,24.6z"/>
			<g>
				<path class="st0" d="M119.5,15.4h-6.1v-8h4V5.5h-4V3.1h-2.3v2.4h-7.7V3.1h-2.3v2.4h-4v1.9h4v7.9H95v1.9h5.7
					c-0.8,1.5-3.3,3.3-5.7,4v2.2c2.9-0.9,4.8-2,5.9-3.1v1.6h5.1v2.5h-8.7v1.9h19.8v-1.9h-8.7v-2.5h5.1v-1.6c1.2,1.1,3,2.2,5.9,3.1
					v-2.2c-2.4-0.7-4.8-2.5-5.7-4h5.7L119.5,15.4L119.5,15.4z M103.5,7.4h7.6v1.4h-7.6V7.4z M103.5,10.7h7.6v1.4h-7.6V10.7z
					 M103.5,14h7.6v1.4h-7.6V14z M108.5,20.1v-2h-2.4v2h-4.8c1.2-1.2,1.8-2.2,2.1-2.8h7.8c0.2,0.6,0.8,1.6,2.1,2.8H108.5z"/>
			</g>
		</g>
	</g>
	<g>
		<g>
			<polygon id="E_00000093878679030018074280000008884688883495822262_" class="st0" points="102.1,35.3 102.8,34.2 98,34.2 
				98,41.8 102.6,41.8 102.6,40.7 99.6,40.7 99.6,38.4 102.1,38.4 102.1,37.3 99.6,37.3 99.6,35.3 			"/>
			<polygon id="F_00000060010896162721014210000001897210652865641135_" class="st0" points="92.5,41.8 94.1,41.8 94.1,38.8 
				96.5,38.8 96.5,37.7 94.1,37.7 94.1,35.3 96.6,35.3 97.2,34.2 92.5,34.2 			"/>
			<polygon id="L_00000078725925242932289960000013630621597562929804_" class="st0" points="85.5,40.8 85.5,34.2 83.9,34.2 
				83.9,41.8 88.5,41.8 88.5,40.8 			"/>
			<rect id="I_00000109744293352006104380000008592019416896482986_" x="89.5" y="34.2" class="st0" width="1.6" height="7.6"/>
		</g>
		<path class="st0" d="M74.1,40.6c-0.3,0.1-0.6,0.2-1,0.2c-1.3,0-2.6-1-2.6-2.8c0-1.7,1.1-2.8,2.7-2.8c0.6,0,1.2,0.2,1.6,0.4l0,0
			l0.5-1l0,0C74.8,34.3,74,34,73.1,34c-2.7,0-4.3,1.8-4.3,3.9c0,2.3,1.7,4,4.3,4c0.9,0,1.7-0.2,2.5-0.5l0,0v-3.2h-1.5V40.6
			L74.1,40.6z M76.9,34.2v7.6h1.6v-7.7h-1.6V34.2z M68.9,34.2h-1.6l-2.6,3.3v-3.3h-1.6v7.6h1.6V38l2.8,3.8h2l-3.4-4.2L68.9,34.2z"/>
	</g>
</g>
</svg>
