<svg version="1.1" id="Layer_1" xmlns="http://www.w3.org/2000/svg" xmlns:xlink="http://www.w3.org/1999/xlink" x="0px" y="0px"
	 width="100%" viewBox="0 0 200 200" enable-background="new 0 0 200 200" xml:space="preserve">
<path fill="#FDFFFE" opacity="1.000000" stroke="none" 
	d="
M110.000000,201.000000 
	C73.355949,201.000000 37.211899,201.000000 1.033923,201.000000 
	C1.033923,134.397644 1.033923,67.795280 1.033923,1.096454 
	C67.560547,1.096454 134.121292,1.096454 200.841003,1.096454 
	C200.841003,67.666367 200.841003,134.333145 200.841003,201.000000 
	C170.795563,201.000000 140.647781,201.000000 110.000000,201.000000 
M132.540390,174.125076 
	C134.793701,173.048798 137.082108,172.039795 139.295044,170.886093 
	C169.330185,155.227188 186.570068,120.148926 180.343613,87.409142 
	C172.248459,44.843384 135.376328,17.457249 92.032768,21.817768 
	C31.262384,27.931492 -0.255025,97.339561 35.175110,147.016586 
	C55.460251,175.458633 94.367172,189.429077 132.540390,174.125076 
z"/>
<path fill="#04A48C" opacity="1.000000" stroke="none" 
	d="
M132.186707,174.274704 
	C94.367172,189.429077 55.460251,175.458633 35.175110,147.016586 
	C-0.255025,97.339561 31.262384,27.931492 92.032768,21.817768 
	C135.376328,17.457249 172.248459,44.843384 180.343613,87.409142 
	C186.570068,120.148926 169.330185,155.227188 139.295044,170.886093 
	C137.082108,172.039795 134.793701,173.048798 132.186707,174.274704 
M162.074158,103.908119 
	C162.074158,103.908119 162.171371,103.830566 161.849396,103.285278 
	C160.918411,102.817688 159.987411,102.350105 158.803650,101.452477 
	C158.360367,101.240623 157.917099,101.028763 157.118225,100.225517 
	C156.144119,99.636620 155.169998,99.047722 153.988602,98.158302 
	C153.988602,98.158302 153.638931,98.053299 153.376450,97.600471 
	C152.928375,97.367119 152.480316,97.133766 151.652634,96.360222 
	C145.153687,89.875717 137.304474,84.736305 132.380692,76.649864 
	C131.629440,75.416054 129.485291,74.573181 127.899109,74.415115 
	C125.675354,74.193497 122.575066,75.825432 121.258301,74.819916 
	C118.038673,72.361336 114.791847,69.246323 113.068947,65.667206 
	C109.724342,58.719204 106.054916,56.279266 98.578842,57.750168 
	C97.168404,58.027676 95.593147,57.900616 94.168167,57.603851 
	C80.507286,54.758896 80.519997,54.741096 74.261696,67.004776 
	C73.431076,68.632462 72.598694,70.288849 71.521492,71.750992 
	C70.767654,72.774223 69.696747,74.051254 68.593559,74.250069 
	C61.779694,75.478043 56.104309,78.378380 52.159790,84.262711 
	C51.820583,84.768730 51.102169,85.064766 50.507553,85.348709 
	C41.792900,89.510094 33.066929,93.649429 27.393400,102.411079 
	C29.318935,108.589211 33.050705,109.915695 38.606426,105.798859 
	C39.787674,104.923546 40.581627,103.532280 41.747578,102.628410 
	C45.621349,99.625381 49.325748,96.274803 53.568729,93.905792 
	C60.885777,89.820412 68.644356,86.531754 76.030655,82.560928 
	C78.265915,81.359261 80.285805,79.275558 81.704773,77.132637 
	C85.136276,71.950409 87.430267,67.584373 95.914131,70.356293 
	C101.399818,72.148605 105.027374,73.751564 107.501663,79.332878 
	C103.928329,83.710968 100.267052,88.196808 96.680824,92.590698 
	C97.559143,92.834702 98.677345,93.145340 99.964630,93.502953 
	C98.228271,95.679359 96.835991,97.424477 95.438057,99.176682 
	C99.524521,102.049545 107.623337,99.853951 113.197838,96.697655 
	C118.299599,93.809029 124.404510,92.107826 130.249802,91.408737 
	C132.538330,91.135025 135.319595,95.021027 137.885269,97.001114 
	C138.662506,97.600952 139.438705,98.211021 140.267609,98.733551 
	C144.734955,101.549683 149.218704,104.339752 154.009933,107.725578 
	C154.991287,108.197296 155.972656,108.669006 157.266220,109.655777 
	C158.138611,110.120613 159.011017,110.585442 160.109283,111.483498 
	C160.343643,111.764030 160.638748,111.862503 161.473480,112.174004 
	C162.221329,112.491226 162.969193,112.808449 164.208252,113.707573 
	C166.136917,114.111145 168.065582,114.514717 170.656006,114.747345 
	C171.478546,113.551208 172.301086,112.355072 173.385437,110.778229 
	C172.530334,110.045876 171.291061,108.984528 170.010620,108.001648 
	C170.010620,108.001648 170.073624,107.939125 169.730148,107.438179 
	C169.152786,107.299301 168.575409,107.160423 167.778610,106.805412 
	C167.778610,106.805412 167.470810,106.793770 167.134415,106.299232 
	C166.759262,106.193466 166.384125,106.087700 165.647217,105.555054 
	C165.136932,105.350502 164.626633,105.145950 163.768219,104.444748 
	C163.214600,104.225922 162.660980,104.007095 162.074158,103.908119 
z"/>
<path fill="#F1FCFB" opacity="1.000000" stroke="none" 
	d="
M153.638931,98.053299 
	C153.638931,98.053299 153.988602,98.158302 154.158249,98.667358 
	C155.376541,99.723236 156.425171,100.270073 157.473816,100.816910 
	C157.917099,101.028763 158.360367,101.240623 158.966644,102.031662 
	C160.143539,103.017418 161.157455,103.423996 162.171371,103.830566 
	C162.171371,103.830566 162.074158,103.908119 162.212799,104.147217 
	C162.939758,104.571350 163.528046,104.756378 164.116348,104.941391 
	C164.626633,105.145950 165.136932,105.350502 165.996613,106.016647 
	C166.720947,106.583427 167.095871,106.688599 167.470810,106.793770 
	C167.470810,106.793770 167.778610,106.805412 168.064590,107.162857 
	C168.924927,107.659904 169.499268,107.799515 170.073624,107.939125 
	C170.073624,107.939125 170.010620,108.001648 170.007690,108.320053 
	C169.328903,110.090279 168.653030,111.542084 167.551788,112.999367 
	C165.989944,113.045120 164.853500,113.085396 163.717041,113.125671 
	C162.969193,112.808449 162.221329,112.491226 161.109192,111.776276 
	C160.506256,111.141830 160.219086,111.032402 159.883408,111.050270 
	C159.011017,110.585442 158.138611,110.120613 156.983536,109.069992 
	C155.699509,108.035736 154.698151,107.587265 153.696808,107.138802 
	C149.218704,104.339752 144.734955,101.549683 140.267609,98.733551 
	C139.438705,98.211021 138.662506,97.600952 137.885269,97.001114 
	C135.319595,95.021027 132.538330,91.135025 130.249802,91.408737 
	C124.404510,92.107826 118.299599,93.809029 113.197838,96.697655 
	C107.623337,99.853951 99.524521,102.049545 95.438057,99.176682 
	C96.835991,97.424477 98.228271,95.679359 99.964630,93.502953 
	C98.677345,93.145340 97.559143,92.834702 96.680824,92.590698 
	C100.267052,88.196808 103.928329,83.710968 107.501663,79.332878 
	C105.027374,73.751564 101.399818,72.148605 95.914131,70.356293 
	C87.430267,67.584373 85.136276,71.950409 81.704773,77.132637 
	C80.285805,79.275558 78.265915,81.359261 76.030655,82.560928 
	C68.644356,86.531754 60.885777,89.820412 53.568729,93.905792 
	C49.325748,96.274803 45.621349,99.625381 41.747578,102.628410 
	C40.581627,103.532280 39.787674,104.923546 38.606426,105.798859 
	C33.050705,109.915695 29.318935,108.589211 27.393400,102.411079 
	C33.066929,93.649429 41.792900,89.510094 50.507553,85.348709 
	C51.102169,85.064766 51.820583,84.768730 52.159790,84.262711 
	C56.104309,78.378380 61.779694,75.478043 68.593559,74.250069 
	C69.696747,74.051254 70.767654,72.774223 71.521492,71.750992 
	C72.598694,70.288849 73.431076,68.632462 74.261696,67.004776 
	C80.519997,54.741096 80.507286,54.758896 94.168167,57.603851 
	C95.593147,57.900616 97.168404,58.027676 98.578842,57.750168 
	C106.054916,56.279266 109.724342,58.719204 113.068947,65.667206 
	C114.791847,69.246323 118.038673,72.361336 121.258301,74.819916 
	C122.575066,75.825432 125.675354,74.193497 127.899109,74.415115 
	C129.485291,74.573181 131.629440,75.416054 132.380692,76.649864 
	C137.304474,84.736305 145.153687,89.875717 151.945282,96.878632 
	C152.704926,97.615791 153.171921,97.834549 153.638931,98.053299 
M164.264725,110.476768 
	C164.668259,110.510483 165.077469,110.590271 165.470917,110.541924 
	C165.557358,110.531311 165.587814,110.065224 165.644058,109.808884 
	C165.108444,109.855789 164.572815,109.902695 163.962051,109.294937 
	C163.277725,108.595741 162.593399,107.896545 161.909073,107.197342 
	C161.600876,107.617958 161.292679,108.038567 160.984497,108.459183 
	C161.980820,108.985390 162.977142,109.511604 164.264725,110.476768 
z"/>
<path fill="#D1F6F2" opacity="1.000000" stroke="none" 
	d="
M167.977158,112.993889 
	C168.653030,111.542084 169.328903,110.090279 170.028290,108.280823 
	C171.291061,108.984528 172.530334,110.045876 173.385437,110.778229 
	C172.301086,112.355072 171.478546,113.551208 170.278656,114.519669 
	C169.259918,113.859299 168.618546,113.426598 167.977158,112.993889 
z"/>
<path fill="#D9F9F7" opacity="1.000000" stroke="none" 
	d="
M167.551788,112.999367 
	C168.618546,113.426598 169.259918,113.859299 169.947784,114.605148 
	C168.065582,114.514717 166.136917,114.111145 163.962646,113.416626 
	C164.853500,113.085396 165.989944,113.045120 167.551788,112.999367 
z"/>
<path fill="#D1F6F2" opacity="1.000000" stroke="none" 
	d="
M162.010376,103.557922 
	C161.157455,103.423996 160.143539,103.017418 159.093018,102.246681 
	C159.987411,102.350105 160.918411,102.817688 162.010376,103.557922 
z"/>
<path fill="#D9F9F7" opacity="1.000000" stroke="none" 
	d="
M153.853363,107.432190 
	C154.698151,107.587265 155.699509,108.035736 156.827423,108.812454 
	C155.972656,108.669006 154.991287,108.197296 153.853363,107.432190 
z"/>
<path fill="#D1F6F2" opacity="1.000000" stroke="none" 
	d="
M157.296021,100.521210 
	C156.425171,100.270073 155.376541,99.723236 154.261902,98.817612 
	C155.169998,99.047722 156.144119,99.636620 157.296021,100.521210 
z"/>
<path fill="#D1F6F2" opacity="1.000000" stroke="none" 
	d="
M153.507690,97.826889 
	C153.171921,97.834549 152.704926,97.615791 152.135071,97.148727 
	C152.480316,97.133766 152.928375,97.367119 153.507690,97.826889 
z"/>
<path fill="#D1F6F2" opacity="1.000000" stroke="none" 
	d="
M163.942291,104.693069 
	C163.528046,104.756378 162.939758,104.571350 162.229401,104.087296 
	C162.660980,104.007095 163.214600,104.225922 163.942291,104.693069 
z"/>
<path fill="#D1F6F2" opacity="1.000000" stroke="none" 
	d="
M169.901886,107.688652 
	C169.499268,107.799515 168.924927,107.659904 168.174316,107.270920 
	C168.575409,107.160423 169.152786,107.299301 169.901886,107.688652 
z"/>
<path fill="#D1F6F2" opacity="1.000000" stroke="none" 
	d="
M167.302612,106.546501 
	C167.095871,106.688599 166.720947,106.583427 166.177490,106.230095 
	C166.384125,106.087700 166.759262,106.193466 167.302612,106.546501 
z"/>
<path fill="#D1F6F2" opacity="1.000000" stroke="none" 
	d="
M159.996338,111.266884 
	C160.219086,111.032402 160.506256,111.141830 160.869751,111.578743 
	C160.638748,111.862503 160.343643,111.764030 159.996338,111.266884 
z"/>
<path fill="#D1F6F2" opacity="1.000000" stroke="none" 
	d="
M163.973480,110.037811 
	C162.977142,109.511604 161.980820,108.985390 160.984497,108.459183 
	C161.292679,108.038567 161.600876,107.617958 161.909073,107.197342 
	C162.593399,107.896545 163.277725,108.595741 163.983582,109.644241 
	C164.005127,109.993553 163.973480,110.037811 163.973480,110.037811 
z"/>
<path fill="#D1F6F2" opacity="1.000000" stroke="none" 
	d="
M164.021164,109.971573 
	C164.572815,109.902695 165.108444,109.855789 165.644058,109.808884 
	C165.587814,110.065224 165.557358,110.531311 165.470917,110.541924 
	C165.077469,110.590271 164.668259,110.510483 164.119110,110.257294 
	C163.973480,110.037811 164.005127,109.993553 164.021164,109.971573 
z"/>
</svg>