<svg version="1.1" id="Layer_1" xmlns="http://www.w3.org/2000/svg" xmlns:xlink="http://www.w3.org/1999/xlink" x="0px" y="0px"
	 width="100%" viewBox="0 0 900 900" enable-background="new 0 0 900 900" xml:space="preserve">
<path fill="#FEFFFF" opacity="1.000000" stroke="none" 
	d="
M477.000000,901.000000 
	C318.000000,901.000000 159.500000,901.000000 1.000000,901.000000 
	C1.000000,601.000000 1.000000,301.000000 1.000000,1.000000 
	C301.000000,1.000000 601.000000,1.000000 901.000000,1.000000 
	C901.000000,301.000000 901.000000,601.000000 901.000000,901.000000 
	C759.833313,901.000000 618.666687,901.000000 477.000000,901.000000 
M272.960419,252.007629 
	C272.960419,252.007629 272.798218,251.781342 273.526306,251.878876 
	C275.983093,250.176315 278.439880,248.473755 281.134155,246.542389 
	C281.134155,246.542389 281.450958,246.450836 282.217163,246.735229 
	C290.040405,244.141907 297.692902,240.383194 305.723724,239.206573 
	C320.778076,237.000900 336.044159,236.194458 351.239014,235.025635 
	C354.944916,234.740585 357.047058,234.020966 357.025055,229.601685 
	C356.879944,200.439545 356.972504,171.276245 356.881134,142.113678 
	C356.876740,140.715927 355.867737,139.321304 355.140930,137.879425 
	C355.140930,137.879425 355.076172,137.699554 354.838531,136.959427 
	C354.430298,136.692657 354.017456,136.186066 353.614502,136.193817 
	C339.318970,136.468475 325.023865,136.773575 310.731232,137.166489 
	C310.101990,137.183792 309.496490,138.065018 308.268616,138.701263 
	C307.849121,138.703552 307.429596,138.705826 306.366058,138.223511 
	C300.632660,138.829437 294.857422,139.175171 289.173737,140.090027 
	C272.108795,142.836777 255.536194,147.540161 239.834473,154.720322 
	C230.266373,159.095657 221.107956,164.444534 212.062057,169.852219 
	C207.388519,172.646088 202.097458,175.150909 199.647247,181.328598 
	C199.220001,181.643982 198.792755,181.959351 197.638474,182.139206 
	C192.701233,185.776962 187.126511,188.815414 184.969330,195.851578 
	C184.290024,196.556625 183.610733,197.261688 182.229248,198.014374 
	C181.234863,199.452103 180.240463,200.889832 179.081848,202.677521 
	C179.081848,202.677521 178.784103,202.924088 178.109283,202.999649 
	C172.251770,206.896683 169.240295,212.711456 166.987640,219.052750 
	C166.987640,219.052750 167.211014,219.167984 166.533646,219.315430 
	C161.746475,228.686234 155.834534,237.665573 152.408081,247.509995 
	C145.436874,267.538696 143.248764,288.662689 143.212738,309.718018 
	C142.947479,464.717041 143.056961,619.716736 143.052048,774.716187 
	C143.051819,781.955811 143.067810,781.956970 150.122894,781.956787 
	C247.289230,781.953735 344.455566,781.950439 441.621918,781.947144 
	C445.077667,781.947021 448.533386,781.947144 452.829712,781.947144 
	C456.176117,779.017700 454.000488,774.334412 454.003326,770.052979 
	C454.037872,718.053162 454.080811,666.053162 453.928925,614.053772 
	C453.914764,609.203857 455.430664,607.779480 460.212311,607.810852 
	C488.544312,607.996704 516.878113,607.902344 545.211365,607.902771 
	C551.937256,607.902832 551.965149,607.903809 551.969238,601.392212 
	C551.987793,572.059082 551.989014,542.725891 551.997009,513.392761 
	C551.998718,507.134491 551.944885,507.084442 545.485352,507.084656 
	C487.485535,507.086639 429.485718,507.096313 371.485931,507.060150 
	C368.851074,507.058502 366.204376,506.735687 363.584106,506.399384 
	C355.753479,505.394440 353.099640,507.731689 353.099640,515.740723 
	C353.099670,569.240540 353.098480,622.740417 353.094177,676.240234 
	C353.093628,682.982117 353.084045,682.995667 346.525482,682.997620 
	C323.525543,683.004578 300.525452,683.052612 277.525787,682.975464 
	C268.883759,682.946472 260.241547,682.428162 251.601669,682.484070 
	C244.178162,682.532043 243.917511,682.544312 243.917130,675.422363 
	C243.910583,553.422791 243.825577,431.422943 244.113922,309.424042 
	C244.132675,301.484497 246.466476,293.382385 248.771957,285.669312 
	C250.631363,279.448730 254.075073,273.701721 256.934937,267.369049 
	C256.934937,267.369049 257.196289,267.074249 257.865814,267.001678 
	C260.596008,263.721436 263.326172,260.441223 266.294800,256.874268 
	C266.294800,256.874268 266.630219,256.711304 267.365631,256.841797 
	C269.173462,255.155975 270.981293,253.470139 272.960419,252.007629 
M497.500061,137.431183 
	C482.268860,137.431183 467.037659,137.431183 451.658905,137.431183 
	C451.658905,143.127945 451.659607,147.937210 451.658752,152.746475 
	C451.649719,204.569275 451.602295,256.392120 451.701447,308.214752 
	C451.709656,312.507965 450.050079,313.464783 446.078796,313.445496 
	C417.250488,313.305359 388.420898,313.432983 359.592590,313.291260 
	C355.779388,313.272522 354.376160,314.175415 354.398529,318.249542 
	C354.557831,347.241669 354.478577,376.235077 354.505646,405.228027 
	C354.507111,406.796082 354.781708,408.363861 354.954041,410.196472 
	C357.172089,410.196472 358.821503,410.196503 360.470917,410.196533 
	C421.794983,410.196991 483.119263,410.131256 544.442749,410.317535 
	C549.611938,410.333221 550.811523,408.862305 550.795471,403.852356 
	C550.622742,350.027740 550.764648,296.202148 550.593994,242.377533 
	C550.578857,237.605759 552.035583,236.598175 556.521545,236.621979 
	C589.015686,236.794373 621.511963,236.811325 654.005371,236.577118 
	C658.970032,236.541351 660.008240,238.137283 659.992493,242.781937 
	C659.833557,289.607666 659.487549,336.438965 660.040588,383.258698 
	C660.400635,413.744171 647.133972,436.224152 622.749695,453.138824 
	C621.422058,454.059753 620.140564,455.047211 618.031921,456.595123 
	C621.951294,459.823914 625.289185,462.716705 628.772827,465.421844 
	C671.118835,498.304626 683.563599,542.254822 674.506958,593.164368 
	C666.410522,638.676025 622.331604,677.642700 572.822754,684.890076 
	C564.990173,686.036621 557.096497,686.765442 549.418579,687.665344 
	C549.418579,718.857666 549.418579,749.741882 549.418579,780.890808 
	C551.387024,780.890808 552.879639,780.982117 554.357971,780.875671 
	C562.824890,780.265991 571.340088,780.004944 579.744690,778.905151 
	C637.978638,771.285156 688.349854,747.805603 727.838379,703.571228 
	C757.642883,670.184692 773.597473,630.875366 775.075989,585.956787 
	C776.603149,539.562195 763.515137,497.496368 737.113342,459.500946 
	C734.769714,456.128143 734.814087,453.959869 737.439087,450.884277 
	C747.329224,439.296417 753.563416,426.112274 754.100525,410.592468 
	C754.526672,398.278381 755.457336,385.968903 755.484253,373.655914 
	C755.651550,297.001526 755.574158,220.346512 755.786865,143.692291 
	C755.800964,138.623886 754.567627,137.302811 749.461975,137.312988 
	C665.808289,137.479813 582.154114,137.431503 497.500061,137.431183 
z"/>
<path fill="#039E9A" opacity="1.000000" stroke="none" 
	d="
M498.000061,137.431396 
	C582.154114,137.431503 665.808289,137.479813 749.461975,137.312988 
	C754.567627,137.302811 755.800964,138.623886 755.786865,143.692291 
	C755.574158,220.346512 755.651550,297.001526 755.484253,373.655914 
	C755.457336,385.968903 754.526672,398.278381 754.100525,410.592468 
	C753.563416,426.112274 747.329224,439.296417 737.439087,450.884277 
	C734.814087,453.959869 734.769714,456.128143 737.113342,459.500946 
	C763.515137,497.496368 776.603149,539.562195 775.075989,585.956787 
	C773.597473,630.875366 757.642883,670.184692 727.838379,703.571228 
	C688.349854,747.805603 637.978638,771.285156 579.744690,778.905151 
	C571.340088,780.004944 562.824890,780.265991 554.357971,780.875671 
	C552.879639,780.982117 551.387024,780.890808 549.418579,780.890808 
	C549.418579,749.741882 549.418579,718.857666 549.418579,687.665344 
	C557.096497,686.765442 564.990173,686.036621 572.822754,684.890076 
	C622.331604,677.642700 666.410522,638.676025 674.506958,593.164368 
	C683.563599,542.254822 671.118835,498.304626 628.772827,465.421844 
	C625.289185,462.716705 621.951294,459.823914 618.031921,456.595123 
	C620.140564,455.047211 621.422058,454.059753 622.749695,453.138824 
	C647.133972,436.224152 660.400635,413.744171 660.040588,383.258698 
	C659.487549,336.438965 659.833557,289.607666 659.992493,242.781937 
	C660.008240,238.137283 658.970032,236.541351 654.005371,236.577118 
	C621.511963,236.811325 589.015686,236.794373 556.521545,236.621979 
	C552.035583,236.598175 550.578857,237.605759 550.593994,242.377533 
	C550.764648,296.202148 550.622742,350.027740 550.795471,403.852356 
	C550.811523,408.862305 549.611938,410.333221 544.442749,410.317535 
	C483.119263,410.131256 421.794983,410.196991 360.470917,410.196533 
	C358.821503,410.196503 357.172089,410.196472 354.954041,410.196472 
	C354.781708,408.363861 354.507111,406.796082 354.505646,405.228027 
	C354.478577,376.235077 354.557831,347.241669 354.398529,318.249542 
	C354.376160,314.175415 355.779388,313.272522 359.592590,313.291260 
	C388.420898,313.432983 417.250488,313.305359 446.078796,313.445496 
	C450.050079,313.464783 451.709656,312.507965 451.701447,308.214752 
	C451.602295,256.392120 451.649719,204.569275 451.658752,152.746475 
	C451.659607,147.937210 451.658905,143.127945 451.658905,137.431183 
	C467.037659,137.431183 482.268860,137.431183 498.000061,137.431396 
z"/>
<path fill="#038FC7" opacity="1.000000" stroke="none" 
	d="
M182.931442,197.966751 
	C183.610733,197.261688 184.290024,196.556625 185.427155,195.484695 
	C190.045151,190.836777 194.205322,186.555756 198.365509,182.274719 
	C198.792755,181.959351 199.220001,181.643982 200.132874,181.085968 
	C223.183533,162.439560 248.869781,150.500061 277.207458,144.240433 
	C287.067902,142.062302 297.071747,140.533478 307.010101,138.708099 
	C307.429596,138.705826 307.849121,138.703552 309.022949,138.761261 
	C324.876923,138.447357 339.976562,138.073456 355.076172,137.699554 
	C355.076172,137.699554 355.140930,137.879425 355.169342,138.370636 
	C355.219513,168.508835 355.137054,198.156616 355.372589,227.801895 
	C355.408966,232.380630 353.817535,233.089249 349.674377,233.418579 
	C333.783325,234.681686 317.835541,235.856812 302.115143,238.359879 
	C294.978577,239.496201 288.324127,243.660248 281.450958,246.450836 
	C281.450958,246.450836 281.134155,246.542389 280.651123,246.665039 
	C277.711487,248.452240 275.254852,250.116791 272.798218,251.781342 
	C272.798218,251.781342 272.960419,252.007629 272.533112,251.919678 
	C270.280609,253.458252 268.455414,255.084778 266.630219,256.711304 
	C266.630219,256.711304 266.294800,256.874268 265.840881,257.036621 
	C262.656769,260.490753 259.926544,263.782501 257.196289,267.074280 
	C257.196289,267.074249 256.934937,267.369049 256.555786,267.666870 
	C246.413956,280.994385 242.251175,295.929352 242.238571,311.922729 
	C242.142151,434.229645 242.228256,556.536682 242.138504,678.843628 
	C242.135193,683.335510 243.263901,684.860779 247.988647,684.833496 
	C281.480316,684.639771 314.973602,684.734680 348.466370,684.732971 
	C354.971710,684.732666 354.971527,684.723450 354.971283,678.205200 
	C354.969238,623.883545 355.043488,569.561646 354.841919,515.240784 
	C354.822754,510.074921 356.306885,508.888184 361.275421,508.901306 
	C422.428467,509.062836 483.582214,509.048615 544.735413,508.908783 
	C549.206238,508.898560 550.417786,510.325409 550.395020,514.622009 
	C550.242004,543.448303 550.226501,572.276245 550.391418,601.102356 
	C550.415833,605.374451 548.972473,606.375305 544.934448,606.354065 
	C516.274719,606.203369 487.612885,606.396057 458.954254,606.164795 
	C453.949066,606.124451 452.368103,607.412170 452.444733,612.543701 
	C452.792908,635.864929 452.827332,659.192200 452.817780,682.517151 
	C452.805634,712.173828 452.435211,741.831970 452.657715,771.486267 
	C452.734344,781.694336 452.988800,780.351196 443.473724,780.353699 
	C345.828064,780.379761 248.182388,780.375366 150.536713,780.365051 
	C148.775757,780.364868 147.014832,780.186340 144.736526,780.063049 
	C144.736526,777.100037 144.736603,774.636780 144.736526,772.173584 
	C144.732285,630.703979 144.690750,489.234375 144.770981,347.764832 
	C144.780991,330.115082 145.062271,312.448151 145.893845,294.821045 
	C146.768402,276.282501 149.893784,258.050934 157.017670,240.771225 
	C160.048767,233.418976 163.791626,226.360153 167.211029,219.167984 
	C167.211014,219.167984 166.987640,219.052750 167.406189,219.006668 
	C171.477859,213.615082 175.130981,208.269592 178.784119,202.924103 
	C178.784103,202.924088 179.081848,202.677521 179.480255,202.403259 
	C180.896240,200.741577 181.913834,199.354156 182.931442,197.966751 
z"/>
<path fill="#B4E4F4" opacity="1.000000" stroke="none" 
	d="
M166.872345,219.241699 
	C163.791626,226.360153 160.048767,233.418976 157.017670,240.771225 
	C149.893784,258.050934 146.768402,276.282501 145.893845,294.821045 
	C145.062271,312.448151 144.780991,330.115082 144.770981,347.764832 
	C144.690750,489.234375 144.732285,630.703979 144.736526,772.173584 
	C144.736603,774.636780 144.736526,777.100037 144.736526,780.063049 
	C147.014832,780.186340 148.775757,780.364868 150.536713,780.365051 
	C248.182388,780.375366 345.828064,780.379761 443.473724,780.353699 
	C452.988800,780.351196 452.734344,781.694336 452.657715,771.486267 
	C452.435211,741.831970 452.805634,712.173828 452.817780,682.517151 
	C452.827332,659.192200 452.792908,635.864929 452.444733,612.543701 
	C452.368103,607.412170 453.949066,606.124451 458.954254,606.164795 
	C487.612885,606.396057 516.274719,606.203369 544.934448,606.354065 
	C548.972473,606.375305 550.415833,605.374451 550.391418,601.102356 
	C550.226501,572.276245 550.242004,543.448303 550.395020,514.622009 
	C550.417786,510.325409 549.206238,508.898560 544.735413,508.908783 
	C483.582214,509.048615 422.428467,509.062836 361.275421,508.901306 
	C356.306885,508.888184 354.822754,510.074921 354.841919,515.240784 
	C355.043488,569.561646 354.969238,623.883545 354.971283,678.205200 
	C354.971527,684.723450 354.971710,684.732666 348.466370,684.732971 
	C314.973602,684.734680 281.480316,684.639771 247.988647,684.833496 
	C243.263901,684.860779 242.135193,683.335510 242.138504,678.843628 
	C242.228256,556.536682 242.142151,434.229645 242.238571,311.922729 
	C242.251175,295.929352 246.413956,280.994385 256.496277,267.854675 
	C254.075073,273.701721 250.631363,279.448730 248.771957,285.669312 
	C246.466476,293.382385 244.132675,301.484497 244.113922,309.424042 
	C243.825577,431.422943 243.910583,553.422791 243.917130,675.422363 
	C243.917511,682.544312 244.178162,682.532043 251.601669,682.484070 
	C260.241547,682.428162 268.883759,682.946472 277.525787,682.975464 
	C300.525452,683.052612 323.525543,683.004578 346.525482,682.997620 
	C353.084045,682.995667 353.093628,682.982117 353.094177,676.240234 
	C353.098480,622.740417 353.099670,569.240540 353.099640,515.740723 
	C353.099640,507.731689 355.753479,505.394440 363.584106,506.399384 
	C366.204376,506.735687 368.851074,507.058502 371.485931,507.060150 
	C429.485718,507.096313 487.485535,507.086639 545.485352,507.084656 
	C551.944885,507.084442 551.998718,507.134491 551.997009,513.392761 
	C551.989014,542.725891 551.987793,572.059082 551.969238,601.392212 
	C551.965149,607.903809 551.937256,607.902832 545.211365,607.902771 
	C516.878113,607.902344 488.544312,607.996704 460.212311,607.810852 
	C455.430664,607.779480 453.914764,609.203857 453.928925,614.053772 
	C454.080811,666.053162 454.037872,718.053162 454.003326,770.052979 
	C454.000488,774.334412 456.176117,779.017700 452.829712,781.947144 
	C448.533386,781.947144 445.077667,781.947021 441.621918,781.947144 
	C344.455566,781.950439 247.289230,781.953735 150.122894,781.956787 
	C143.067810,781.956970 143.051819,781.955811 143.052048,774.716187 
	C143.056961,619.716736 142.947479,464.717041 143.212738,309.718018 
	C143.248764,288.662689 145.436874,267.538696 152.408081,247.509995 
	C155.834534,237.665573 161.746475,228.686234 166.872345,219.241699 
z"/>
<path fill="#B4E4F4" opacity="1.000000" stroke="none" 
	d="
M281.834045,246.593018 
	C288.324127,243.660248 294.978577,239.496201 302.115143,238.359879 
	C317.835541,235.856812 333.783325,234.681686 349.674377,233.418579 
	C353.817535,233.089249 355.408966,232.380630 355.372589,227.801895 
	C355.137054,198.156616 355.219513,168.508835 355.262146,138.393555 
	C355.867737,139.321304 356.876740,140.715927 356.881134,142.113678 
	C356.972504,171.276245 356.879944,200.439545 357.025055,229.601685 
	C357.047058,234.020966 354.944916,234.740585 351.239014,235.025635 
	C336.044159,236.194458 320.778076,237.000900 305.723724,239.206573 
	C297.692902,240.383194 290.040405,244.141907 281.834045,246.593018 
z"/>
<path fill="#B4E4F4" opacity="1.000000" stroke="none" 
	d="
M306.688080,138.465805 
	C297.071747,140.533478 287.067902,142.062302 277.207458,144.240433 
	C248.869781,150.500061 223.183533,162.439560 200.275757,180.858948 
	C202.097458,175.150909 207.388519,172.646088 212.062057,169.852219 
	C221.107956,164.444534 230.266373,159.095657 239.834473,154.720322 
	C255.536194,147.540161 272.108795,142.836777 289.173737,140.090027 
	C294.857422,139.175171 300.632660,138.829437 306.688080,138.465805 
z"/>
<path fill="#B4E4F4" opacity="1.000000" stroke="none" 
	d="
M354.957336,137.329498 
	C339.976562,138.073456 324.876923,138.447357 309.328613,138.682541 
	C309.496490,138.065018 310.101990,137.183792 310.731232,137.166489 
	C325.023865,136.773575 339.318970,136.468475 353.614502,136.193817 
	C354.017456,136.186066 354.430298,136.692657 354.957336,137.329498 
z"/>
<path fill="#B4E4F4" opacity="1.000000" stroke="none" 
	d="
M178.446701,202.961884 
	C175.130981,208.269592 171.477859,213.615082 167.514465,219.072021 
	C169.240295,212.711456 172.251770,206.896683 178.446701,202.961884 
z"/>
<path fill="#B4E4F4" opacity="1.000000" stroke="none" 
	d="
M198.001984,182.206970 
	C194.205322,186.555756 190.045151,190.836777 185.564026,195.220963 
	C187.126511,188.815414 192.701233,185.776962 198.001984,182.206970 
z"/>
<path fill="#B4E4F4" opacity="1.000000" stroke="none" 
	d="
M257.531067,267.037964 
	C259.926544,263.782501 262.656769,260.490753 265.721680,257.179993 
	C263.326172,260.441223 260.596008,263.721436 257.531067,267.037964 
z"/>
<path fill="#B4E4F4" opacity="1.000000" stroke="none" 
	d="
M273.162262,251.830109 
	C275.254852,250.116791 277.711487,248.452240 280.532410,246.779449 
	C278.439880,248.473755 275.983093,250.176315 273.162262,251.830109 
z"/>
<path fill="#B4E4F4" opacity="1.000000" stroke="none" 
	d="
M266.997925,256.776550 
	C268.455414,255.084778 270.280609,253.458252 272.447449,251.808014 
	C270.981293,253.470139 269.173462,255.155975 266.997925,256.776550 
z"/>
<path fill="#B4E4F4" opacity="1.000000" stroke="none" 
	d="
M182.580353,197.990570 
	C181.913834,199.354156 180.896240,200.741577 179.562347,202.228271 
	C180.240463,200.889832 181.234863,199.452103 182.580353,197.990570 
z"/>
</svg>