<?xml version="1.0" encoding="UTF-8" standalone="no"?>
<!-- Generator: Adobe Illustrator 16.0.0, SVG Export Plug-In . SVG Version: 6.00 Build 0)  -->

<svg
   xmlns:dc="http://purl.org/dc/elements/1.1/"
   xmlns:cc="http://creativecommons.org/ns#"
   xmlns:rdf="http://www.w3.org/1999/02/22-rdf-syntax-ns#"
   xmlns:svg="http://www.w3.org/2000/svg"
   xmlns="http://www.w3.org/2000/svg"
   xmlns:sodipodi="http://sodipodi.sourceforge.net/DTD/sodipodi-0.dtd"
   xmlns:inkscape="http://www.inkscape.org/namespaces/inkscape"
   version="1.1"
   id="圖層_1"
   x="0px"
   y="0px"
   width="200"
   height="200"
   viewBox="0 0 200 200"
   enable-background="new 0 0 595.276 841.89"
   xml:space="preserve"
   inkscape:version="0.48.4 r9939"
   sodipodi:docname="Land Bank of Taiwan Logo.svg"><metadata
   id="metadata69"><rdf:RDF><cc:Work
       rdf:about=""><dc:format>image/svg+xml</dc:format><dc:type
         rdf:resource="http://purl.org/dc/dcmitype/StillImage" /><dc:title></dc:title></cc:Work></rdf:RDF></metadata><defs
   id="defs67">
	

		
		
		
		
		
		
		
		
		
		
		
		
		
		
		
		
		
		
		
		
		
		
		
		
		
		
		
		
		
	</defs><sodipodi:namedview
   pagecolor="#ffffff"
   bordercolor="#666666"
   borderopacity="1"
   objecttolerance="10"
   gridtolerance="10"
   guidetolerance="10"
   inkscape:pageopacity="0"
   inkscape:pageshadow="2"
   inkscape:window-width="1920"
   inkscape:window-height="1017"
   id="namedview65"
   showgrid="false"
   fit-margin-top="0"
   fit-margin-left="0"
   fit-margin-right="0"
   fit-margin-bottom="0"
   inkscape:zoom="2.2425732"
   inkscape:cx="-22.428933"
   inkscape:cy="43.986664"
   inkscape:window-x="-8"
   inkscape:window-y="-8"
   inkscape:window-maximized="1"
   inkscape:current-layer="圖層_1" />
<path
   d="m 198.74989,88.415763 h -64.487 l 13.2071,-36.295787 h 40.17621 c 0,0 -22.73058,-53.1363298 -89.347422,-52.10515978 C 31.681935,1.0512262 -10.074485,67.382198 2.1073339,119.45579 H 62.366377 l -13.77259,36.8482 H 16.899919 c 0,0 24.833998,44.75026 87.751371,43.67701 62.91209,-1.04168 103.07245,-62.61669 94.0986,-111.565237 M 41.210707,87.374081 c 0,0 -8.471781,1.041682 -6.865155,-8.95952 l 6.865155,-19.991885 c 0,0 2.642477,-6.83933 12.683889,-7.37069 H 87.179235 L 73.438355,87.374081 H 41.210707 z m 116.305973,43.692789 -6.33666,16.31969 c 0,0 -1.59605,8.91743 -15.876,8.91743 H 60.241825 L 103.06052,37.899436 h 39.11394 l -29.07253,81.051304 h 36.48204 c 0,0 12.16068,0.50505 7.93271,12.11613"
   id="path41"
   inkscape:connector-curvature="0"
   style="fill:#00561f" />
</svg>