<svg version="1.1" id="Layer_1" xmlns="http://www.w3.org/2000/svg" xmlns:xlink="http://www.w3.org/1999/xlink" x="0px" y="0px"
	 width="100%" viewBox="0 0 600 314" enable-background="new 0 0 600 314" xml:space="preserve">
<path fill="#D70E1A" opacity="1.000000" stroke="none" 
	d="
M436.000000,315.000000 
	C346.312439,315.000000 256.624878,315.000000 166.341156,314.644592 
	C153.310898,311.688141 143.793518,298.090759 143.834991,286.243317 
	C144.136383,200.163666 143.945755,114.082336 144.155457,28.002129 
	C144.165451,23.898048 146.162476,19.666124 147.795471,15.726398 
	C151.156113,7.618652 158.668655,4.357128 166.000000,1.000000 
	C255.687561,1.000000 345.375122,1.000000 435.658844,1.355429 
	C448.688904,4.311710 458.206451,17.909315 458.164978,29.756575 
	C457.863556,115.836258 458.054260,201.917618 457.844574,287.997833 
	C457.834595,292.101929 455.837555,296.333832 454.204559,300.273529 
	C450.843964,308.381317 443.331360,311.642853 436.000000,315.000000 
M304.908020,24.176908 
	C289.775970,25.346128 275.817200,29.907518 263.897461,39.452217 
	C240.814301,57.935982 230.843658,81.976097 235.246765,111.325180 
	C239.674942,140.841385 256.144165,160.938370 284.049652,171.838684 
	C295.007416,176.118942 306.335022,180.082352 316.293365,186.158249 
	C336.158051,198.278320 338.467468,222.242371 322.428345,239.147293 
	C313.297638,248.770844 302.060883,255.096069 289.065704,256.820740 
	C277.412476,258.367310 265.511200,258.137177 253.713104,258.467590 
	C245.922287,258.685730 238.120392,258.508820 229.914276,258.508820 
	C229.914276,213.052383 229.914276,168.127014 229.914276,122.597900 
	C216.792389,122.597900 204.080429,122.597900 191.447815,122.597900 
	C191.447815,100.884598 191.447815,79.779297 191.447815,58.055965 
	C204.412277,58.055965 217.114334,58.055965 229.755722,58.055965 
	C229.755722,46.497238 229.755722,35.561184 229.755722,24.422606 
	C205.775101,24.422606 182.039154,24.422606 158.106995,24.422606 
	C158.106995,68.583298 158.106995,112.482368 158.106995,156.992081 
	C170.919174,156.992081 183.463791,156.992081 196.383224,156.992081 
	C196.383224,202.198288 196.383224,246.794525 196.383224,291.838745 
	C198.569077,291.838745 200.364685,291.838745 202.160294,291.838745 
	C230.159210,291.838745 258.169556,292.343353 286.154114,291.709839 
	C320.419556,290.934174 346.295166,275.221619 361.148895,244.196259 
	C375.531128,214.155640 370.722321,179.211853 336.390747,158.382034 
	C326.805817,152.566620 316.102264,148.576996 305.847229,143.891357 
	C300.567108,141.478821 294.865295,139.874191 289.837585,137.045166 
	C272.744812,127.427277 264.460510,107.630173 269.407745,89.269722 
	C274.395966,70.757118 291.211578,58.172386 310.962616,58.172039 
	C342.461395,58.171478 373.960175,58.171890 405.458954,58.171894 
	C407.235504,58.171894 409.012054,58.171898 411.218323,58.171898 
	C411.218323,79.361313 411.218323,99.953995 411.218323,120.725266 
	C422.387024,120.725266 433.118103,120.725266 443.930908,120.725266 
	C443.930908,88.525978 443.930908,56.601997 443.930908,24.163397 
	C397.742157,24.163397 351.792419,24.163397 304.908020,24.176908 
M359.921906,134.544022 
	C378.665924,148.002319 393.876038,164.687531 399.784027,187.265106 
	C409.385864,223.959183 399.261841,256.197357 374.095551,284.061951 
	C371.938477,286.450317 369.809998,288.864471 367.467712,291.491577 
	C378.182770,291.491577 388.851898,290.985748 399.444244,291.669525 
	C406.498596,292.124908 410.796326,289.358368 414.805023,284.068451 
	C429.294037,264.948608 435.439209,243.082932 437.345520,219.557465 
	C441.423004,169.237671 414.912140,120.808189 370.126434,97.419029 
	C357.358337,90.750938 343.957458,86.019539 329.547577,84.341675 
	C316.481415,82.820274 306.880310,91.831337 309.114655,103.943977 
	C310.815033,113.161789 317.877563,116.811852 325.932343,118.927086 
	C337.959076,122.085381 349.085510,127.113098 359.921906,134.544022 
z"/>
<path fill="#FFFFFF" opacity="1.000000" stroke="none" 
	d="
M165.531342,1.000000 
	C158.668655,4.357128 151.156113,7.618652 147.795471,15.726398 
	C146.162476,19.666124 144.165451,23.898048 144.155457,28.002129 
	C143.945755,114.082336 144.136383,200.163666 143.834991,286.243317 
	C143.793518,298.090759 153.310898,311.688141 165.872498,314.644592 
	C111.037384,315.000000 56.074764,315.000000 1.056073,315.000000 
	C1.056073,210.441879 1.056073,105.883720 1.056073,1.000000 
	C55.687130,1.000000 110.374908,1.000000 165.531342,1.000000 
z"/>
<path fill="#FFFFFF" opacity="1.000000" stroke="none" 
	d="
M436.468658,315.000000 
	C443.331360,311.642853 450.843964,308.381317 454.204559,300.273529 
	C455.837555,296.333832 457.834595,292.101929 457.844574,287.997833 
	C458.054260,201.917618 457.863556,115.836258 458.164978,29.756575 
	C458.206451,17.909315 448.688904,4.311710 436.127502,1.355429 
	C490.962616,1.000000 545.925232,1.000000 600.943970,1.000000 
	C600.943970,105.558151 600.943970,210.116333 600.943970,315.000000 
	C546.312866,315.000000 491.625092,315.000000 436.468658,315.000000 
z"/>
<path fill="#FFFEFD" opacity="1.000000" stroke="none" 
	d="
M305.375366,24.170153 
	C351.792419,24.163397 397.742157,24.163397 443.930908,24.163397 
	C443.930908,56.601997 443.930908,88.525978 443.930908,120.725266 
	C433.118103,120.725266 422.387024,120.725266 411.218323,120.725266 
	C411.218323,99.953995 411.218323,79.361313 411.218323,58.171898 
	C409.012054,58.171898 407.235504,58.171894 405.458954,58.171894 
	C373.960175,58.171890 342.461395,58.171478 310.962616,58.172039 
	C291.211578,58.172386 274.395966,70.757118 269.407745,89.269722 
	C264.460510,107.630173 272.744812,127.427277 289.837585,137.045166 
	C294.865295,139.874191 300.567108,141.478821 305.847229,143.891357 
	C316.102264,148.576996 326.805817,152.566620 336.390747,158.382034 
	C370.722321,179.211853 375.531128,214.155640 361.148895,244.196259 
	C346.295166,275.221619 320.419556,290.934174 286.154114,291.709839 
	C258.169556,292.343353 230.159210,291.838745 202.160294,291.838745 
	C200.364685,291.838745 198.569077,291.838745 196.383224,291.838745 
	C196.383224,246.794525 196.383224,202.198288 196.383224,156.992081 
	C183.463791,156.992081 170.919174,156.992081 158.106995,156.992081 
	C158.106995,112.482368 158.106995,68.583298 158.106995,24.422606 
	C182.039154,24.422606 205.775101,24.422606 229.755722,24.422606 
	C229.755722,35.561184 229.755722,46.497238 229.755722,58.055965 
	C217.114334,58.055965 204.412277,58.055965 191.447815,58.055965 
	C191.447815,79.779297 191.447815,100.884598 191.447815,122.597900 
	C204.080429,122.597900 216.792389,122.597900 229.914276,122.597900 
	C229.914276,168.127014 229.914276,213.052383 229.914276,258.508820 
	C238.120392,258.508820 245.922287,258.685730 253.713104,258.467590 
	C265.511200,258.137177 277.412476,258.367310 289.065704,256.820740 
	C302.060883,255.096069 313.297638,248.770844 322.428345,239.147293 
	C338.467468,222.242371 336.158051,198.278320 316.293365,186.158249 
	C306.335022,180.082352 295.007416,176.118942 284.049652,171.838684 
	C256.144165,160.938370 239.674942,140.841385 235.246765,111.325180 
	C230.843658,81.976097 240.814301,57.935982 263.897461,39.452217 
	C275.817200,29.907518 289.775970,25.346128 305.375366,24.170153 
z"/>
<path fill="#FFFEFD" opacity="1.000000" stroke="none" 
	d="
M359.630768,134.329590 
	C349.085510,127.113098 337.959076,122.085381 325.932343,118.927086 
	C317.877563,116.811852 310.815033,113.161789 309.114655,103.943977 
	C306.880310,91.831337 316.481415,82.820274 329.547577,84.341675 
	C343.957458,86.019539 357.358337,90.750938 370.126434,97.419029 
	C414.912140,120.808189 441.423004,169.237671 437.345520,219.557465 
	C435.439209,243.082932 429.294037,264.948608 414.805023,284.068451 
	C410.796326,289.358368 406.498596,292.124908 399.444244,291.669525 
	C388.851898,290.985748 378.182770,291.491577 367.467712,291.491577 
	C369.809998,288.864471 371.938477,286.450317 374.095551,284.061951 
	C399.261841,256.197357 409.385864,223.959183 399.784027,187.265106 
	C393.876038,164.687531 378.665924,148.002319 359.630768,134.329590 
z"/>
</svg>